+15_ID_stride3.mot
nRows=10
nColumns=38

name +15_ID_stride3.mot
datacolumns 38
datarows 10
range 1.1050000000 1.1500000000
endheader
time	pelvis_tilt_moment	pelvis_list_moment	pelvis_rotation_moment	pelvis_tx_force	pelvis_ty_force	pelvis_tz_force	hip_flexion_r_moment	hip_adduction_r_moment	hip_rotation_r_moment	knee_angle_r_moment	ankle_angle_r_moment	subtalar_angle_r_moment	mtp_angle_r_moment	hip_flexion_l_moment	hip_adduction_l_moment	hip_rotation_l_moment	knee_angle_l_moment	ankle_angle_l_moment	subtalar_angle_l_moment	mtp_angle_l_moment	lumbar_extension_moment	lumbar_bending_moment	lumbar_rotation_moment	arm_flex_r_moment	arm_add_r_moment	arm_rot_r_moment	elbow_flex_r_moment	pro_sup_r_moment	wrist_flex_r_moment	wrist_dev_r_moment	arm_flex_l_moment	arm_add_l_moment	arm_rot_l_moment	elbow_flex_l_moment	pro_sup_l_moment	wrist_flex_l_moment	wrist_dev_l_moment
        1.1050000000	      -29.7575168170	      -89.6522921569	      -30.2650181640	      -13.1523077754	      273.5249418050	      315.4688265479	     -201.0475740681	      -18.3813480266	       -3.6056265847	      -89.6720240560	       -0.6456665812	       -0.8983416740	        0.1256938147	      106.0029510458	      -49.6152630838	        8.5737234781	       42.2799371571	        4.1952542896	       -1.1068686424	        0.1221834895	       34.0715818054	      -11.3350886446	        6.9224770391	       -0.7106604246	        0.2107587612	        0.5985413491	        1.4179065619	        0.0017009776	        0.1114461225	       -0.1012671063	       -2.8911654556	        1.0622777384	        0.3644292735	        0.9732389740	       -0.0218189283	        0.0357490550	       -0.0885599364	
        1.1100000000	       -4.2527225186	      -18.3602545400	      -21.2369030026	       -2.2389990188	      378.7477041442	      262.4168434285	     -128.1618848664	      -26.0479757900	       -0.4661262909	      -46.3236784474	        2.4193828842	        4.5723813175	        0.1818684384	       99.9479916449	      -45.0564241481	        9.7499244347	       42.2538622798	        4.6068497261	       -1.1506374634	        0.1682449818	       43.4080198488	      -19.7619792364	        4.3532290274	       -1.4769831259	        0.2758336643	        0.5516239181	        2.0541166166	       -0.0122600115	        0.1155113195	       -0.1498117697	       -3.4316111183	        1.3568943840	        0.7311677088	        1.5166940479	       -0.0253923123	        0.0851140198	       -0.1222870184	
        1.1150000000	       26.6018973578	       36.1023337400	      -11.6556548359	       12.3445996735	      406.9333247405	      184.9970143217	      -77.2277324989	      -40.2960413445	        6.4860632119	      -18.6391127175	       -1.1668180540	        8.5691559673	        0.2268185048	       97.3717606660	      -39.2380869062	       10.5742618514	       42.2039661433	        5.0390820239	       -1.2113441851	        0.2149718496	       50.3086653011	      -27.0265102919	        3.2809033534	       -1.6136489430	        0.5228193945	        0.6228054653	        2.6059314995	       -0.0207719359	        0.1291023225	       -0.1916957928	       -3.5168540506	        1.3167656100	        0.7604493495	        2.0046564919	       -0.0331483677	        0.1046231561	       -0.1589651997	
        1.1200000000	       55.3272918481	       73.3199078150	       -0.6654440426	       31.2581457902	      408.2181333956	       89.2791329488	      -47.8441820395	      -57.4930058528	       17.3795790492	       -1.5396660204	      -10.6566351042	       12.8873325337	        0.2539432742	       96.6065227976	      -32.8141588708	       10.8856843218	       42.0949219915	        5.4221996535	       -1.2708867719	        0.2569122631	       52.9238905135	      -30.8410811600	        2.9999731415	       -1.6068004353	        0.9051555300	        0.7777028522	        3.0194404429	       -0.0248697014	        0.1494055280	       -0.2231027384	       -3.5049658854	        1.1772256877	        0.7500723624	        2.3898635649	       -0.0436900439	        0.1096144516	       -0.1929914149	
        1.1250000000	       74.3594109640	       94.4287443019	       13.5421636542	       56.6832851629	      302.2343137688	      -17.8157660429	      -35.5132173914	      -71.9705606386	       31.4690482823	        7.8088659970	      -25.6698422707	       20.0717425680	        0.2637661493	       96.9375546324	      -26.3904391898	       10.8367145782	       41.7417349818	        5.6939823311	       -1.3101964347	        0.2892629269	       51.7371070575	      -31.6181427792	        3.8886960871	       -1.0027745899	        1.2556527372	        0.9394380847	        3.2620968158	       -0.0259153786	        0.1679913158	       -0.2415567821	       -3.0206891474	        0.9292457730	        0.5222102655	        2.6401373965	       -0.0542191165	        0.0941039661	       -0.2193816113	
        1.1300000000	       73.6291145621	       80.1318155103	       25.7096500204	       79.3663806749	      162.1495818340	      -95.1596891040	      -55.7764698862	      -76.8824236379	       43.1926948317	        3.1831998315	      -45.4172281657	       27.9280332579	        0.2512718635	       96.1498432726	      -20.3715526750	       10.2724944008	       40.8641757095	        5.7939067165	       -1.3092336780	        0.3092232794	       46.7294309096	      -28.0738887395	        5.2691644285	       -0.2956336204	        1.4760252219	        1.0536374974	        3.3336000635	       -0.0251320773	        0.1803734624	       -0.2464098166	       -2.4517675521	        0.7491955371	        0.2956557698	        2.7576218284	       -0.0621138419	        0.0727147128	       -0.2346941588	
        1.1350000000	       56.0353182230	       43.0501593957	       33.3538482060	       92.3281966587	       18.0798516372	     -123.2998778616	      -94.6931668199	      -70.4272902612	       46.6314531078	       -7.9814985200	      -66.6113815164	       34.9921440571	        0.2220712891	       92.9873420070	      -14.9698681614	        9.3592348946	       39.2737221844	        5.7041904231	       -1.2706836081	        0.3125102949	       40.3179693086	      -21.8266154248	        6.6477694477	        0.3010821176	        1.5138432435	        1.1016951985	        3.2949221555	       -0.0246987077	        0.1851741879	       -0.2424179991	       -1.9611695786	        0.7193733583	        0.1340677400	        2.7926207454	       -0.0662152584	        0.0545407194	       -0.2394975673	
        1.1400000000	       22.8103777109	       -1.7161133941	       34.0764675786	       91.3055823441	     -101.1541675904	     -117.1367817921	     -136.3074578068	      -55.0700485077	       43.6722252639	      -10.3537615790	      -85.0779147265	       39.8348350589	        0.1803762075	       87.0905788948	      -10.4047785443	        8.2551045335	       36.9848089832	        5.4588014806	       -1.1893223347	        0.3072307450	       34.4154417465	      -14.5516643352	        7.6333940798	        0.6437949305	        1.4877559483	        1.1062668137	        3.2725353328	       -0.0255075589	        0.1860165119	       -0.2382618266	       -1.6390814745	        0.7643726382	        0.0717524081	        2.8449608970	       -0.0680606962	        0.0466856238	       -0.2429222781	
        1.1450000000	      -11.5450264122	      -25.8613562464	       32.5008277463	       80.4185380466	     -163.1701849394	      -93.3256369249	     -149.6766124085	      -37.0081258333	       34.5402622447	       -6.4856207795	      -97.1192176711	       41.6600385150	        0.1343274690	       79.6528880876	       -6.9825918860	        7.1195167582	       34.2618849288	        5.0901161288	       -1.0801609235	        0.2907124808	       31.5506693390	       -9.3550969185	        7.8759462647	        0.8264599420	        1.4831062999	        1.1124697252	        3.3088305260	       -0.0287592971	        0.1874661950	       -0.2401348714	       -1.3944971898	        0.8322644034	        0.0535062582	        2.9837340268	       -0.0703770420	        0.0463094928	       -0.2508934062	
        1.1500000000	      -38.4313782267	      -34.2174165970	       27.3153342483	       56.1035855386	     -188.1580080713	      -69.8471946292	     -150.1333706173	      -22.1623269818	       24.4729713308	       18.9352599607	     -104.1978789181	       42.1366932137	        0.0896592873	       72.1666397008	       -4.5124364539	        6.0193669739	       31.4099781288	        4.6686183149	       -0.9541692491	        0.2682383045	       30.6154268747	       -6.5535168216	        7.7754243033	        0.9488576174	        1.6287237887	        1.1627133393	        3.5939631428	       -0.0351511116	        0.1955376417	       -0.2612958626	       -1.1507116450	        0.8580830142	        0.0467948420	        3.3262903045	       -0.0762266482	        0.0530376861	       -0.2766801457	
